<svg width="37" height="37" viewBox="0 0 37 37" fill="none" xmlns="http://www.w3.org/2000/svg">
<rect x="0.199036" y="0.349121" width="36" height="36" rx="8" fill="#E7E6F2"/>
<path fill-rule="evenodd" clip-rule="evenodd" d="M9.19904 18.3491C9.19904 14.754 9.19904 12.9564 10.0557 11.6617C10.4383 11.0835 10.9334 10.5884 11.5116 10.2058C12.8063 9.34912 14.6039 9.34912 18.199 9.34912C21.7942 9.34912 23.5917 9.34912 24.8865 10.2058C25.4646 10.5884 25.9598 11.0835 26.3423 11.6617C27.199 12.9564 27.199 14.754 27.199 18.3491C27.199 21.9443 27.199 23.7418 26.3423 25.0366C25.9598 25.6147 25.4646 26.1099 24.8865 26.4924C23.5917 27.3491 21.7942 27.3491 18.199 27.3491C14.6039 27.3491 12.8063 27.3491 11.5116 26.4924C10.9334 26.1099 10.4383 25.6147 10.0557 25.0366C9.19904 23.7418 9.19904 21.9443 9.19904 18.3491ZM22.8583 18.3493C22.8583 20.9227 20.7722 23.0088 18.1989 23.0088C15.6256 23.0088 13.5395 20.9227 13.5395 18.3493C13.5395 15.776 15.6256 13.6899 18.1989 13.6899C20.7722 13.6899 22.8583 15.776 22.8583 18.3493ZM18.1989 21.4324C19.9016 21.4324 21.2819 20.052 21.2819 18.3493C21.2819 16.6467 19.9016 15.2663 18.1989 15.2663C16.4962 15.2663 15.1159 16.6467 15.1159 18.3493C15.1159 20.052 16.4962 21.4324 18.1989 21.4324ZM23.0423 14.5507C23.647 14.5507 24.1371 14.0605 24.1371 13.4558C24.1371 12.8512 23.647 12.361 23.0423 12.361C22.4377 12.361 21.9475 12.8512 21.9475 13.4558C21.9475 14.0605 22.4377 14.5507 23.0423 14.5507Z" fill="#8D8BA7"/>
</svg>
