<svg width="37" height="37" viewBox="0 0 37 37" fill="none" xmlns="http://www.w3.org/2000/svg">
<rect x="0.199036" y="0.349121" width="36" height="36" rx="8" fill="#E7E6F2"/>
<path d="M9.19907 11.7689C9.19907 11.1917 9.40177 10.7155 9.80717 10.3404C10.2126 9.96517 10.7396 9.77759 11.3883 9.77759C12.0253 9.77759 12.5408 9.96228 12.9346 10.3317C13.34 10.7127 13.5427 11.209 13.5427 11.8209C13.5427 12.375 13.3458 12.8367 12.952 13.2062C12.5466 13.5871 12.0137 13.7776 11.3535 13.7776H11.3361C10.6991 13.7776 10.1836 13.5871 9.7898 13.2062C9.39597 12.8252 9.19907 12.3461 9.19907 11.7689ZM9.42493 26.9204V15.3533H13.2821V26.9204H9.42493ZM15.4191 26.9204H19.2763V20.4616C19.2763 20.0575 19.3226 19.7458 19.4153 19.5265C19.5774 19.134 19.8236 18.8021 20.1537 18.5308C20.4838 18.2595 20.8979 18.1239 21.396 18.1239C22.6933 18.1239 23.3419 18.9955 23.3419 20.7386V26.9204H27.1991V20.2884C27.1991 18.5799 26.7937 17.2841 25.9828 16.401C25.172 15.5178 24.1006 15.0763 22.7686 15.0763C21.2744 15.0763 20.1103 15.717 19.2763 16.9984V17.033H19.2589L19.2763 16.9984V15.3533H15.4191C15.4423 15.7227 15.4539 16.8714 15.4539 18.7992C15.4539 20.7271 15.4423 23.4341 15.4191 26.9204Z" fill="#8D8BA7"/>
</svg>
