<?xml version="1.0" encoding="iso-8859-1"?>
<!-- Uploaded to: SVG Repo, www.svgrepo.com, Generator: SVG Repo Mixer Tools -->
<svg fill="#000000" height="800px" width="800px"  id="Capa_1" xmlns="http://www.w3.org/2000/svg" viewBox="0 0 64.268 64.268">
<g id="Volleyball">
	<path d="M57.268,8.935c-3.859,0-7,3.14-7,7c0,3.86,3.141,7,7,7c3.859,0,7-3.14,7-7C64.268,12.075,61.127,8.935,57.268,8.935z
		 M57.268,20.935c-2.757,0-5-2.243-5-5c0-2.757,2.243-5,5-5c2.757,0,5,2.243,5,5C62.268,18.691,60.025,20.935,57.268,20.935z" fill="#5D5A88"/>
	<path d="M47.9,33.437l-12.496-7.81l-5.968-10.9c-0.022-0.04-0.059-0.065-0.086-0.102l0.443-0.951
		c0.583,0.185,1.195,0.284,1.817,0.284c0.672,0,1.355-0.114,2.023-0.353c3.112-1.12,4.734-4.563,3.615-7.675
		c-0.542-1.507-1.639-2.713-3.089-3.397c-1.451-0.683-3.079-0.761-4.587-0.219c-1.507,0.541-2.713,1.638-3.396,3.088
		c-0.683,1.45-0.761,3.078-0.22,4.586c0.414,1.151,1.153,2.087,2.068,2.767c-0.007,0.014-0.02,0.022-0.026,0.036L17.868,34.543
		c-0.001,0.001-0.001,0.002-0.001,0.002l-0.019,0.04c-0.021,0.045-0.02,0.093-0.034,0.14c-0.019,0.064-0.048,0.125-0.054,0.191
		c0,0.003-0.002,0.006-0.003,0.009l-1.295,15.73l-15.946,8.83c-0.483,0.268-0.658,0.876-0.391,1.359
		c0.183,0.33,0.524,0.516,0.876,0.516c0.164,0,0.33-0.04,0.483-0.125L17.9,52.147c0.293-0.162,0.484-0.46,0.513-0.793l1.136-13.798
		l9.15,11.17L22.63,60.863c-0.247,0.494-0.047,1.095,0.447,1.342c0.144,0.072,0.296,0.105,0.446,0.105
		c0.062,0,0.122-0.014,0.182-0.025c0.043,0.005,0.08,0.025,0.124,0.025h7.948c0.553,0,1-0.448,1-1c0-0.552-0.447-1-1-1h-6.635
		l5.635-11.271c0.176-0.353,0.129-0.776-0.121-1.081L19.926,34.86l6.44-13.827v8.877c0,0.464,0.319,0.867,0.771,0.973l19.188,4.529
		c0.077,0.019,0.154,0.027,0.23,0.027c0.209,0,0.405-0.072,0.571-0.188c0.08,0.02,0.162,0.033,0.243,0.033
		c0.333,0,0.659-0.167,0.849-0.47C48.51,34.346,48.368,33.73,47.9,33.437z M27.986,6.254c0.455-0.967,1.26-1.698,2.264-2.059h0.001
		c0.44-0.159,0.897-0.238,1.354-0.238c0.581,0,1.16,0.129,1.703,0.384c0.967,0.456,1.698,1.259,2.059,2.264
		c0.746,2.075-0.335,4.37-2.409,5.117c-2.076,0.745-4.371-0.336-5.117-2.411C27.478,8.307,27.531,7.221,27.986,6.254z
		 M28.302,16.876l0.014-0.031l5.458,9.971c0.082,0.15,0.201,0.277,0.347,0.368l8.467,5.292l-14.223-3.357V17.192
		C28.366,17.08,28.336,16.977,28.302,16.876z" fill="#5D5A88" />
</g>
</svg>
