<svg width="37" height="37" viewBox="0 0 37 37" fill="none" xmlns="http://www.w3.org/2000/svg">
<rect x="0.199036" y="0.349121" width="36" height="36" rx="8" fill="#E7E6F2"/>
<path d="M21.2261 11.0504V11.0471H22.0701L22.3785 11.1087C22.5841 11.1487 22.7707 11.2011 22.9384 11.2659C23.1062 11.3308 23.2685 11.4064 23.4254 11.4929C23.5823 11.5793 23.7246 11.6674 23.8523 11.757C23.9789 11.8457 24.0925 11.9397 24.1931 12.0391C24.2926 12.1396 24.4479 12.1655 24.6589 12.1169C24.8699 12.0682 25.0971 12.0007 25.3406 11.9143C25.5841 11.8278 25.8248 11.7306 26.0629 11.6225C26.3009 11.5145 26.4459 11.4458 26.4979 11.4167C26.5487 11.3864 26.5758 11.3702 26.579 11.368L26.5823 11.3632L26.5985 11.3551L26.6147 11.347L26.631 11.3389L26.6472 11.3308L26.6504 11.3259L26.6553 11.3227L26.6602 11.3194L26.6634 11.3146L26.6796 11.3097L26.6959 11.3065L26.6926 11.3308L26.6878 11.3551L26.6796 11.3794L26.6715 11.4037L26.6634 11.4199L26.6553 11.4361L26.6472 11.4604C26.6418 11.4766 26.6364 11.4982 26.631 11.5253C26.6256 11.5523 26.5741 11.6603 26.4768 11.8494C26.3794 12.0385 26.2576 12.2303 26.1116 12.4248C25.9655 12.6193 25.8346 12.7663 25.7188 12.8657C25.6019 12.9662 25.5246 13.0364 25.4867 13.0764C25.4488 13.1175 25.4028 13.1553 25.3487 13.1899L25.2676 13.2434L25.2513 13.2515L25.2351 13.2596L25.2319 13.2644L25.227 13.2677L25.2221 13.2709L25.2189 13.2758L25.2026 13.2839L25.1864 13.292L25.1832 13.2968L25.1783 13.3001L25.1734 13.3033L25.1702 13.3082L25.167 13.3131L25.1621 13.3163L25.1572 13.3195L25.1539 13.3244H25.2351L25.6896 13.2271C25.9925 13.1623 26.282 13.084 26.5579 12.9921L26.9961 12.8463L27.0448 12.83L27.0692 12.8219L27.0854 12.8138L27.1017 12.8057L27.1179 12.7976L27.1341 12.7895L27.1666 12.7847L27.199 12.7814V12.8138L27.1909 12.8171L27.1828 12.8219L27.1796 12.8268L27.1747 12.83L27.1698 12.8333L27.1666 12.8381L27.1633 12.843L27.1585 12.8463L27.1536 12.8495L27.1503 12.8544L27.1471 12.8592L27.1422 12.8625L27.1341 12.8787L27.126 12.8949L27.1211 12.8981C27.119 12.9014 27.0503 12.9932 26.915 13.1737C26.7797 13.3552 26.7067 13.447 26.6959 13.4492C26.6851 13.4524 26.6699 13.4687 26.6504 13.4978C26.632 13.5281 26.5173 13.6486 26.3063 13.8593C26.0953 14.07 25.8887 14.2575 25.6863 14.4217C25.4829 14.587 25.3801 14.7902 25.378 15.0311C25.3747 15.271 25.3623 15.5423 25.3406 15.8448C25.319 16.1474 25.2784 16.4742 25.2189 16.8254C25.1594 17.1766 25.0674 17.5737 24.9429 18.0167C24.8185 18.4598 24.667 18.892 24.4885 19.3134C24.3099 19.7348 24.1233 20.113 23.9285 20.448C23.7338 20.783 23.5552 21.0666 23.3929 21.2989C23.2306 21.5313 23.0656 21.7501 22.8979 21.9554C22.7302 22.1607 22.5181 22.3919 22.2616 22.6491C22.0041 22.9052 21.8634 23.0457 21.8396 23.0705C21.8147 23.0943 21.7087 23.1829 21.5215 23.3363C21.3354 23.4908 21.1352 23.6454 20.9209 23.7999C20.7078 23.9533 20.5119 24.0814 20.3334 24.184C20.1549 24.2867 19.9395 24.4039 19.6874 24.5358C19.4364 24.6687 19.1648 24.7918 18.8726 24.9053C18.5805 25.0188 18.2721 25.1241 17.9475 25.2214C17.6228 25.3186 17.309 25.3943 17.0061 25.4483C16.7031 25.5023 16.3595 25.5482 15.9754 25.5861L15.3992 25.6428V25.6509H14.3442V25.6428L14.2062 25.6347C14.1143 25.6293 14.0385 25.6239 13.979 25.6185C13.9195 25.6131 13.695 25.5834 13.3054 25.5293C12.9159 25.4753 12.6102 25.4213 12.3884 25.3672C12.1666 25.3132 11.8365 25.2106 11.3983 25.0593C10.9601 24.908 10.5851 24.7551 10.2735 24.6006C9.96297 24.4471 9.7682 24.3499 9.68921 24.3088C9.6113 24.2689 9.52365 24.2192 9.42627 24.1597L9.28019 24.0706L9.27696 24.0657L9.27207 24.0625L9.26721 24.0592L9.26396 24.0544L9.24773 24.0463L9.2315 24.0382L9.22827 24.0333L9.22338 24.0301L9.21851 24.0268L9.21527 24.0219L9.21204 24.0171L9.20715 24.0138H9.19904V23.9814L9.21527 23.9847L9.2315 23.9895L9.30454 23.9976C9.35323 24.003 9.48579 24.0111 9.70219 24.0219C9.91861 24.0328 10.1485 24.0328 10.392 24.0219C10.6355 24.0111 10.8843 23.9868 11.1386 23.949C11.3929 23.9112 11.6932 23.8464 12.0394 23.7545C12.3857 23.6627 12.7038 23.5535 12.9938 23.4271C13.2827 23.2996 13.4883 23.2045 13.6106 23.1418C13.7318 23.0802 13.9168 22.9657 14.1657 22.7982L14.539 22.547L14.5422 22.5421L14.5471 22.5389L14.552 22.5356L14.5552 22.5308L14.5585 22.5259L14.5633 22.5227L14.5682 22.5194L14.5714 22.5146L14.5877 22.5097L14.6039 22.5065L14.6072 22.4903L14.612 22.474L14.6169 22.4708L14.6201 22.4659L14.4903 22.4578C14.4037 22.4524 14.3199 22.447 14.2387 22.4416C14.1576 22.4362 14.0304 22.4119 13.8573 22.3687C13.6842 22.3255 13.4975 22.2606 13.2973 22.1742C13.0971 22.0878 12.9024 21.9851 12.713 21.8662C12.5237 21.7474 12.3868 21.6485 12.3024 21.5696C12.2191 21.4918 12.1108 21.3816 11.9778 21.239C11.8457 21.0953 11.731 20.9478 11.6337 20.7965C11.5363 20.6452 11.4432 20.4707 11.3545 20.2729L11.2198 19.978L11.2117 19.9536L11.2035 19.9293L11.1987 19.9131L11.1954 19.8969L11.2198 19.9002L11.2441 19.905L11.4227 19.9293C11.5417 19.9455 11.7284 19.9509 11.9826 19.9455C12.2369 19.9401 12.4127 19.9293 12.5101 19.9131C12.6075 19.8969 12.667 19.8861 12.6887 19.8807L12.7211 19.8726L12.7617 19.8645L12.8023 19.8564L12.8055 19.8515L12.8104 19.8483L12.8153 19.845L12.8185 19.8402L12.7861 19.8321L12.7536 19.824L12.7211 19.8159L12.6887 19.8078L12.6562 19.7997C12.6346 19.7943 12.5967 19.7835 12.5426 19.7672C12.4885 19.751 12.3424 19.6916 12.1044 19.589C11.8663 19.4863 11.6769 19.3863 11.5363 19.2891C11.3953 19.1916 11.2608 19.0849 11.1338 18.9698C11.0072 18.8531 10.8681 18.7029 10.7166 18.5192C10.5651 18.3355 10.4299 18.1221 10.3108 17.879C10.1918 17.6358 10.1026 17.4035 10.043 17.182C9.98376 16.9618 9.94465 16.7366 9.92619 16.5094L9.89696 16.169L9.91319 16.1722L9.92942 16.1771L9.94565 16.1852L9.96189 16.1933L9.97812 16.2014L9.99435 16.2095L10.2459 16.323C10.4137 16.3986 10.6219 16.4634 10.8708 16.5175C11.1197 16.5715 11.2685 16.6012 11.3172 16.6066L11.3902 16.6147H11.5363L11.533 16.6098L11.5282 16.6066L11.5233 16.6034L11.52 16.5985L11.5168 16.5936L11.5119 16.5904L11.5071 16.5872L11.5038 16.5823L11.4876 16.5742L11.4714 16.5661L11.4681 16.5612L11.4632 16.558L11.4584 16.5547L11.4551 16.5499L11.4389 16.5418L11.4227 16.5337L11.4194 16.5288C11.4162 16.5266 11.3697 16.4921 11.2798 16.4251C11.1911 16.357 11.098 16.2689 11.0007 16.1609C10.9033 16.0528 10.8059 15.9394 10.7085 15.8205C10.6109 15.7014 10.524 15.5739 10.4488 15.4396C10.3731 15.3045 10.293 15.1327 10.2086 14.9242C10.1253 14.7167 10.062 14.5076 10.0187 14.2969C9.97542 14.0862 9.95108 13.8782 9.94565 13.6729C9.94025 13.4676 9.94565 13.292 9.96189 13.1461C9.97812 13.0002 10.0106 12.8354 10.0593 12.6518C10.108 12.4681 10.1783 12.2736 10.2703 12.0682L10.4082 11.7603L10.4163 11.736L10.4245 11.7117L10.4293 11.7084L10.4326 11.7036L10.4358 11.6987L10.4407 11.6955L10.4456 11.6987L10.4488 11.7036L10.4521 11.7084L10.4569 11.7117L10.4618 11.7149L10.465 11.7198L10.4683 11.7246L10.4732 11.7279L10.4813 11.7441L10.4894 11.7603L10.4943 11.7635L10.4975 11.7684L10.7166 12.0115C10.8627 12.1736 11.0358 12.3546 11.236 12.5545C11.4362 12.7544 11.5471 12.8581 11.5687 12.8657C11.5904 12.8743 11.6174 12.8992 11.6499 12.9403C11.6824 12.9802 11.7906 13.0759 11.9745 13.2271C12.1585 13.3784 12.3992 13.554 12.6968 13.7539C12.9944 13.9538 13.3244 14.151 13.6869 14.3455C14.0494 14.54 14.4389 14.7156 14.8555 14.8723C15.2721 15.029 15.5642 15.1316 15.7319 15.1803C15.8997 15.2289 16.1864 15.291 16.5922 15.3667C16.998 15.4423 17.3036 15.4909 17.5092 15.5125C17.7148 15.5341 17.8555 15.5466 17.9312 15.5498L18.0448 15.5531L18.0416 15.5287L18.0367 15.5044L18.0043 15.3018C17.9826 15.1668 17.9718 14.9777 17.9718 14.7345C17.9718 14.4914 17.9907 14.2672 18.0286 14.0619C18.0665 13.8566 18.1233 13.6486 18.199 13.4379C18.2748 13.2271 18.3489 13.058 18.4214 12.9305C18.495 12.8041 18.5913 12.6599 18.7103 12.4978C18.8293 12.3357 18.9835 12.1682 19.1729 11.9953C19.3623 11.8224 19.5787 11.6684 19.8221 11.5334C20.0656 11.3983 20.2901 11.2956 20.4957 11.2254C20.7013 11.1552 20.8744 11.1092 21.0151 11.0876C21.1558 11.066 21.2261 11.0536 21.2261 11.0504Z" fill="#8D8BA7"/>
</svg>
