<svg width="37" height="37" viewBox="0 0 37 37" fill="none" xmlns="http://www.w3.org/2000/svg">
<rect x="0.199036" y="0.349121" width="36" height="36" rx="8" fill="#E7E6F2"/>
<path d="M18.6377 25.329L14.5755 25.2531C13.2602 25.2267 11.9417 25.2795 10.6522 25.0054C8.69068 24.5959 8.55172 22.588 8.40631 20.9037C8.20595 18.5359 8.28351 16.1251 8.66162 13.777C8.87508 12.4595 9.71511 11.6733 11.0142 11.5878C15.3995 11.2773 19.8141 11.3141 24.1897 11.4589C24.6518 11.4722 25.1171 11.5448 25.5728 11.6274C27.8221 12.0303 27.8769 14.3057 28.0227 16.2212C28.1682 18.1564 28.1068 20.1016 27.8288 22.0236C27.6059 23.615 27.1792 24.9495 25.3789 25.0784C23.1231 25.2468 20.9191 25.3825 18.657 25.3393C18.6571 25.329 18.6441 25.329 18.6377 25.329ZM16.2495 21.3001C17.9494 20.3027 19.6169 19.3219 21.307 18.3311C19.604 17.3337 17.9397 16.3529 16.2495 15.3622V21.3001Z" fill="#8D8BA7"/>
</svg>
