<svg width="42" height="42" viewBox="0 0 42 42" fill="none" xmlns="http://www.w3.org/2000/svg">
<g id="Info">
<path id="Vector" d="M21 41C32.0457 41 41 32.0457 41 21C41 9.9543 32.0457 1 21 1C9.9543 1 1 9.9543 1 21C1 32.0457 9.9543 41 21 41Z" stroke="#5D5A88" stroke-width="2" stroke-linecap="round" stroke-linejoin="round"/>
<path id="Vector_2" d="M21 31V21" stroke="#5D5A88" stroke-width="2" stroke-linecap="round" stroke-linejoin="round"/>
<path id="Vector_3" d="M21.0005 11.6603C20.7779 11.6603 20.5604 11.7263 20.3754 11.8499C20.1903 11.9735 20.0461 12.1493 19.961 12.3549C19.8758 12.5605 19.8535 12.7867 19.8969 13.005C19.9403 13.2232 20.0475 13.4237 20.2049 13.5811C20.3622 13.7385 20.5627 13.8456 20.781 13.889C20.9992 13.9324 21.2255 13.9102 21.4311 13.825C21.6367 13.7398 21.8124 13.5956 21.936 13.4106C22.0597 13.2256 22.1257 13.008 22.1257 12.7855C22.1261 12.6376 22.0972 12.4911 22.0408 12.3544C21.9844 12.2177 21.9016 12.0935 21.797 11.989C21.6924 11.8844 21.5682 11.8015 21.4315 11.7451C21.2949 11.6887 21.1484 11.6599 21.0005 11.6603Z" fill="#5D5A88" stroke="#5D5A88" stroke-width="2" stroke-linecap="round" stroke-linejoin="round"/>
</g>
</svg>
